<svg width="925" height="531" viewBox="0 0 925 531" fill="none" xmlns="http://www.w3.org/2000/svg">
<g clip-path="url(#clip0_1_2)">
<path d="M16.1262 159.262C14.044 159.914 11.8268 160.006 9.69779 159.528C7.56879 159.051 5.60326 158.021 3.99919 156.541C2.39513 155.062 1.20919 153.187 0.560825 151.103C-0.0875411 149.02 -0.17543 146.803 0.306018 144.674C7.52972 114.622 34.9976 41.128 135.064 10.2165C178.409 -3.17319 219.978 -3.40177 258.564 9.53211C290.308 20.1284 311.381 36.7103 321.461 44.7249C324.022 46.7511 325.673 49.7117 326.052 52.9555C326.43 56.1992 325.504 59.4603 323.478 62.0215C323.453 62.0532 323.427 62.0848 323.402 62.1163C321.321 64.6853 318.314 66.3338 315.03 66.7067C311.745 67.0796 308.445 66.1469 305.841 64.1096C287.578 49.72 232.157 6.00455 142.334 33.7516C54.628 60.8449 30.8034 124.218 24.624 150.145C24.1547 152.287 23.1184 154.263 21.6234 155.867C20.1284 157.471 18.2298 158.644 16.1263 159.262L16.1262 159.262Z" fill="#B2EBF2"/>
<path d="M288.866 329.481C287.872 329.802 286.841 329.996 285.799 330.058C207.624 334.268 157.885 269.322 155.843 266.615L155.465 265.99C154.218 264.056 124.123 218.267 137.372 181.902C143.458 165.277 156.916 153.608 177.488 147.253C196.621 141.342 212.277 143.09 225.604 152.606C236.53 160.359 243.533 171.921 250.321 183.086C264.437 206.268 273.088 218.063 299.92 211.258C311.702 208.268 317.203 199.057 319.716 191.881C326.482 172.357 320.485 145.739 304.62 125.601C284.122 99.4746 226.76 56.0805 155.986 77.9434C125.762 87.2796 101.028 105.678 84.4638 131.011C70.7417 152.036 62.7645 178.148 62.5896 202.499C62.3143 247.84 99.4737 307.49 99.8261 308.031C100.682 309.399 101.259 310.923 101.526 312.514C101.793 314.106 101.744 315.735 101.381 317.308C101.018 318.88 100.349 320.366 99.4124 321.68C98.4755 322.995 97.2889 324.111 95.9204 324.967C95.8824 324.991 95.8443 325.014 95.8061 325.038C93.0022 326.786 89.623 327.362 86.3983 326.64C83.1736 325.919 80.3621 323.958 78.5711 321.181C76.8938 318.453 37.2154 254.851 37.5351 202.449C37.9801 145.649 72.4964 77.8602 148.689 54.3235C183.907 43.4444 220.918 45.2729 255.747 59.5529C282.742 70.6887 307.726 89.1228 324.244 110.172C345.341 137.04 352.774 172.21 343.17 199.659C336.767 217.959 323.511 230.586 305.894 235.1C259.981 246.78 241.994 217.374 228.876 195.923C215.406 173.933 207.955 163.622 184.674 170.814C171.891 174.763 164.015 181.09 160.703 190.182C156.196 202.61 160.467 218.539 164.844 229.707C164.89 229.824 164.935 229.94 164.981 230.056C170.592 244.25 179.35 256.987 190.594 267.309C208.606 283.942 242.045 307.656 284.664 305.369C287.922 305.167 291.127 306.267 293.574 308.428C296.021 310.588 297.509 313.633 297.712 316.891C297.714 316.93 297.717 316.97 297.719 317.009C297.819 319.772 297.006 322.49 295.406 324.745C293.806 326.999 291.507 328.664 288.866 329.481L288.866 329.481Z" fill="#B2EBF2"/>
<path d="M194.068 352.83C192.439 353.334 190.724 353.503 189.027 353.326C187.331 353.148 185.688 352.629 184.198 351.799C145.64 329.953 118.573 300.57 99.0816 259.388L99.0032 259.134C86.719 231.676 79.3242 189.725 95.636 154.268C107.678 128.106 130.282 109.717 162.707 99.7007C201.057 87.8539 236.766 96.5762 266.073 124.803C279.402 137.831 290.24 153.182 298.057 170.102C299.303 173.146 299.301 176.558 298.05 179.601C296.8 182.643 294.402 185.071 291.376 186.359C288.349 187.648 284.937 187.693 281.878 186.485C278.818 185.277 276.357 182.914 275.026 179.905C268.408 165.784 259.27 152.988 248.06 142.145C225.47 120.653 199.21 114.298 169.918 123.347C144.605 131.166 127.175 144.989 118.252 164.438C105.385 192.432 112.01 227.388 121.623 248.901C138.809 285.324 162.648 311.159 196.584 330.352C197.986 331.143 199.218 332.202 200.211 333.469C201.203 334.736 201.936 336.186 202.369 337.736C202.801 339.286 202.924 340.906 202.73 342.504C202.536 344.102 202.029 345.645 201.238 347.047C201.207 347.103 201.175 347.158 201.143 347.213C199.562 349.897 197.041 351.899 194.068 352.83V352.83Z" fill="#B2EBF2"/>
<path d="M198.128 229.717C206.937 229.717 214.078 222.577 214.078 213.768C214.078 204.96 206.937 197.819 198.128 197.819C189.32 197.819 182.179 204.96 182.179 213.768C182.179 222.577 189.32 229.717 198.128 229.717Z" fill="#E6E6E6"/>
<path d="M485.703 408.52C485.374 408.52 485.045 408.495 484.719 408.446C483.874 408.321 483.063 408.029 482.331 407.588C481.6 407.147 480.963 406.565 480.458 405.877L471.698 393.998C471.191 393.311 470.824 392.531 470.619 391.702C470.414 390.874 470.374 390.013 470.501 389.169C470.629 388.325 470.921 387.514 471.362 386.783C471.803 386.052 472.384 385.415 473.071 384.909L547.97 329.669C548.657 329.162 549.437 328.795 550.266 328.59C551.094 328.385 551.955 328.345 552.799 328.472C553.643 328.6 554.454 328.892 555.185 329.333C555.916 329.774 556.553 330.355 557.06 331.042L565.82 342.92C566.843 344.307 567.273 346.044 567.016 347.749C566.759 349.453 565.835 350.986 564.448 352.009L489.548 407.25C488.436 408.075 487.088 408.52 485.703 408.52V408.52Z" fill="#B2EBF2"/>
<path d="M538.897 364.044L527.433 348.501C526.489 347.22 526.091 345.617 526.329 344.043C526.567 342.47 527.42 341.055 528.701 340.111L572.562 301.681C573.842 300.736 575.446 300.339 577.019 300.577C578.593 300.815 580.007 301.668 580.952 302.948L601.915 327.991C602.86 329.272 603.257 330.876 603.019 332.449C602.781 334.022 601.928 335.437 600.648 336.382L547.287 365.311C546.006 366.256 544.403 366.653 542.829 366.415C541.256 366.178 539.841 365.325 538.897 364.044Z" fill="#0C3F46"/>
<path d="M609.373 530.252H594.615C592.891 530.25 591.239 529.564 590.021 528.346C588.802 527.127 588.117 525.475 588.115 523.752V400.737C588.117 399.014 588.802 397.362 590.021 396.143C591.239 394.924 592.891 394.239 594.615 394.237H609.373C611.097 394.239 612.749 394.924 613.967 396.143C615.186 397.362 615.871 399.014 615.873 400.737V523.752C615.871 525.475 615.186 527.127 613.967 528.346C612.749 529.564 611.097 530.25 609.373 530.252V530.252Z" fill="#B2EBF2"/>
<path d="M638.566 530.252H623.806C622.083 530.25 620.431 529.564 619.212 528.346C617.993 527.127 617.308 525.475 617.306 523.752V400.737C617.308 399.014 617.993 397.362 619.212 396.143C620.431 394.924 622.083 394.239 623.806 394.237H638.566C640.289 394.239 641.941 394.924 643.16 396.143C644.378 397.362 645.064 399.014 645.066 400.737V523.752C645.064 525.475 644.378 527.127 643.16 528.346C641.941 529.564 640.289 530.25 638.566 530.252V530.252Z" fill="#B2EBF2"/>
<path d="M776.955 528.351H452.923V530.591H776.955V528.351Z" fill="#3F3D56"/>
<path d="M610.216 249.262C639.774 249.262 663.736 225.3 663.736 195.742C663.736 166.185 639.774 142.223 610.216 142.223C580.659 142.223 556.697 166.185 556.697 195.742C556.697 225.3 580.659 249.262 610.216 249.262Z" fill="#B2EBF2"/>
<path d="M693.072 467.175L662.078 329.529V297.008C662.078 294.886 661.235 292.851 659.735 291.351C658.235 289.851 656.2 289.008 654.078 289.008H624.388V268.095C624.388 267.044 624.181 266.004 623.779 265.033C623.377 264.063 622.788 263.181 622.045 262.438C621.302 261.695 620.42 261.106 619.449 260.704C618.479 260.302 617.438 260.095 616.388 260.095H600.388C599.337 260.095 598.297 260.302 597.326 260.704C596.356 261.106 595.474 261.695 594.731 262.438C593.988 263.181 593.399 264.063 592.997 265.033C592.595 266.004 592.388 267.044 592.388 268.095V289.008H562.697C560.576 289.008 558.541 289.851 557.041 291.351C555.54 292.851 554.697 294.886 554.697 297.008V468.095C554.698 469.121 554.896 470.137 555.282 471.088C555.643 472.796 556.566 474.335 557.902 475.46C559.239 476.584 560.913 477.23 562.659 477.294L688.083 481.476C695.579 481.672 698.98 471.923 693.072 467.175Z" fill="#0C3F46"/>
<path d="M610.731 214.756C607.425 214.664 603.311 214.548 600.142 212.233C599.198 211.516 598.423 210.601 597.87 209.552C597.317 208.503 597 207.347 596.942 206.163C596.884 205.321 597.022 204.477 597.345 203.697C597.668 202.917 598.166 202.223 598.802 201.668C600.459 200.269 602.878 199.942 605.48 200.707L602.781 180.98L604.763 180.709L607.935 203.899L606.281 203.14C604.362 202.259 601.729 201.812 600.093 203.195C599.691 203.557 599.378 204.006 599.178 204.508C598.978 205.011 598.897 205.553 598.941 206.091C598.989 206.973 599.227 207.833 599.638 208.614C600.049 209.395 600.623 210.079 601.322 210.618C603.788 212.42 607.068 212.653 610.787 212.756L610.731 214.756Z" fill="#2F2E41"/>
<path d="M592.982 182.682H582.21V184.682H592.982V182.682Z" fill="#2F2E41"/>
<path d="M626.982 182.682H616.21V184.682H626.982V182.682Z" fill="#2F2E41"/>
<path d="M563.349 161.149C553.843 155.388 549.365 144.459 549.357 133.649C549.352 127.888 550.603 122.194 553.023 116.966C555.443 111.737 558.974 107.099 563.369 103.374C573.161 94.9055 586.201 90.7612 598.94 89.7081C614.353 88.4341 629.666 91.7842 644.385 96.0602C660.147 100.639 675.591 106.4 691.724 109.605C707.381 112.715 723.079 113.022 738.493 108.524C752.72 104.373 767.161 97.0365 782.356 98.3078C795.481 99.4059 805.448 108.14 812.153 118.931C825.465 140.354 826.517 169.109 845.66 186.949C853.937 194.663 864.72 198.157 875.496 200.769C885.83 203.273 896.854 204.878 906.337 209.946C916.506 215.38 922.662 225.595 921.071 237.3C919.264 250.594 909.804 262.035 899.39 269.845C888.426 277.962 875.789 283.532 862.401 286.149C849.012 288.765 835.209 288.363 821.995 284.971C794.363 277.64 771.908 256.225 742.468 254.882C726.044 254.134 709.874 258.608 693.453 257.866C682.072 257.352 669.822 253.145 661.896 244.681C658.091 240.721 655.713 235.606 655.139 230.144C654.96 228.238 651.958 228.22 652.139 230.144C653.264 242.101 662.066 250.933 672.569 255.788C678.098 258.325 684.001 259.95 690.049 260.6C698.085 261.488 706.278 260.648 714.277 259.771C722.732 258.844 731.201 257.702 739.725 257.805C747.505 257.928 755.216 259.299 762.562 261.866C776.668 266.704 789.375 274.731 802.85 280.982C815.893 287.033 829.55 290.784 843.996 290.877C857.92 290.947 871.693 287.993 884.364 282.22C896.841 276.536 908.567 268.051 916.336 256.612C923.62 245.888 927.444 231.819 920.889 219.813C915.751 210.403 905.953 205.641 896.073 202.71C885.121 199.46 873.674 197.975 862.953 193.928C857.35 191.915 852.196 188.823 847.781 184.828C843.046 180.232 839.144 174.848 836.25 168.917C830.113 156.944 826.976 143.794 821.807 131.427C817.019 119.971 810.467 108.424 799.914 101.364C794.242 97.6125 787.651 95.485 780.856 95.2127C773.339 94.8727 765.868 96.5985 758.723 98.7733C751.162 101.075 743.783 103.949 736.165 106.067C728.141 108.302 719.822 109.295 711.497 109.013C694.375 108.456 677.835 103.369 661.625 98.2412C633.23 89.2577 601.649 79.6405 573.101 93.4881C561.977 98.8837 552.555 107.936 548.582 119.823C545.067 130.342 545.553 142.61 550.972 152.41C553.541 157.071 557.286 160.977 561.835 163.74C563.49 164.743 565 162.15 563.349 161.149L563.349 161.149Z" fill="#C8C8C8"/>
<path d="M646.088 428.594H631.328C629.605 428.592 627.953 427.907 626.734 426.688C625.516 425.47 624.83 423.818 624.828 422.094V336.84C624.83 335.116 625.516 333.464 626.734 332.246C627.953 331.027 629.605 330.342 631.328 330.34H646.088C647.812 330.342 649.464 331.027 650.682 332.246C651.901 333.464 652.586 335.116 652.588 336.84V422.094C652.586 423.818 651.901 425.47 650.682 426.688C649.464 427.907 647.812 428.592 646.088 428.594V428.594Z" fill="#B2EBF2"/>
<path d="M589.116 147.907C589.445 150.258 590.424 152.469 591.943 154.293C593.461 156.116 595.459 157.479 597.711 158.228C599.963 158.977 602.38 159.081 604.688 158.53C606.996 157.979 609.104 156.794 610.775 155.108L608.268 154.446C609.666 158.024 612.011 161.155 615.05 163.504C618.09 165.853 621.71 167.333 625.525 167.784C629.34 168.236 633.206 167.642 636.71 166.067C640.214 164.493 643.224 161.996 645.419 158.843C646.549 157.274 643.948 155.774 642.829 157.329C640.937 159.978 638.369 162.071 635.394 163.391C632.418 164.711 629.143 165.208 625.909 164.833C622.675 164.457 619.602 163.221 617.008 161.254C614.414 159.287 612.395 156.661 611.161 153.649C611.085 153.4 610.948 153.174 610.761 152.994C610.574 152.813 610.343 152.684 610.092 152.617C609.841 152.551 609.576 152.55 609.325 152.615C609.073 152.679 608.842 152.808 608.654 152.987C607.352 154.302 605.704 155.22 603.9 155.634C602.097 156.048 600.213 155.941 598.468 155.325C596.724 154.709 595.19 153.609 594.046 152.155C592.903 150.7 592.196 148.951 592.009 147.11C591.741 145.206 588.85 146.016 589.116 147.907V147.907Z" fill="#2F2E41"/>
<path d="M494.552 360.893L494.239 361.105L488.432 352.538C487.99 351.887 487.425 351.329 486.768 350.896C486.111 350.464 485.375 350.165 484.603 350.017C483.83 349.868 483.036 349.874 482.266 350.032C481.495 350.191 480.763 350.5 480.112 350.941V350.941L461.962 363.246C461.311 363.687 460.754 364.252 460.321 364.909C459.888 365.566 459.589 366.302 459.441 367.074C459.293 367.847 459.298 368.641 459.457 369.412C459.615 370.182 459.924 370.914 460.366 371.565L492.227 418.563C492.668 419.214 493.234 419.772 493.891 420.204C494.548 420.637 495.283 420.936 496.056 421.084C496.828 421.233 497.623 421.227 498.393 421.069C499.163 420.91 499.895 420.601 500.546 420.16V420.16L518.696 407.855C519.347 407.414 519.905 406.849 520.338 406.192C520.77 405.535 521.069 404.799 521.218 404.026C521.366 403.254 521.361 402.46 521.202 401.689C521.043 400.919 520.734 400.187 520.293 399.536V399.536L498.373 367.203L498.686 366.991L494.552 360.893Z" fill="#3F3D56"/>
<path d="M481.485 353.166L479.192 354.72C479.473 354.907 479.703 355.16 479.863 355.458C480.023 355.755 480.107 356.087 480.109 356.424C480.11 356.761 480.029 357.094 479.871 357.392C479.714 357.691 479.485 357.946 479.206 358.135L469.142 364.958C468.863 365.147 468.541 365.265 468.206 365.3C467.87 365.336 467.531 365.289 467.218 365.163C466.906 365.037 466.629 364.835 466.412 364.577C466.195 364.319 466.045 364.011 465.975 363.681L463.833 365.133C463.362 365.452 462.959 365.861 462.647 366.336C462.334 366.81 462.118 367.342 462.011 367.901C461.903 368.459 461.907 369.033 462.022 369.59C462.137 370.147 462.36 370.676 462.679 371.146V371.146L493.472 416.569C493.791 417.04 494.2 417.443 494.675 417.756C495.15 418.068 495.681 418.284 496.24 418.392C496.798 418.499 497.372 418.495 497.929 418.38C498.486 418.266 499.015 418.042 499.486 417.723L517.137 405.757C518.088 405.112 518.743 404.117 518.96 402.989C519.176 401.861 518.936 400.694 518.292 399.743V399.743L487.498 354.32C487.179 353.85 486.77 353.447 486.296 353.134C485.821 352.821 485.289 352.605 484.73 352.498C484.172 352.391 483.598 352.394 483.041 352.509C482.484 352.624 481.955 352.847 481.485 353.166V353.166L481.485 353.166Z" fill="white"/>
</g>
<defs>
<clipPath id="clip0_1_2">
<rect width="924.256" height="530.591" fill="white"/>
</clipPath>
</defs>
</svg>
